<?xml version="1.0" encoding="utf-8"?>
<!-- Generator: Adobe Illustrator 16.0.4, SVG Export Plug-In . SVG Version: 6.00 Build 0)  -->
<!DOCTYPE svg PUBLIC "-//W3C//DTD SVG 1.1//EN" "http://www.w3.org/Graphics/SVG/1.1/DTD/svg11.dtd">
<svg version="1.1" id="Layer_1" xmlns="http://www.w3.org/2000/svg" xmlns:xlink="http://www.w3.org/1999/xlink" x="0px" y="0px"
	 width="80px" height="80px" viewBox="0 0 80 80" enable-background="new 0 0 80 80" xml:space="preserve">
<g>
	<g>
		<path fill="none" stroke="#58595B" stroke-width="4.0358" stroke-miterlimit="10" d="M9.408,77.699V44.538
			c0-6.54,5.303-11.842,11.843-11.842h38.282c6.542,0,11.846,5.303,11.846,11.842v33.161H9.408z"/>
		<polyline fill="none" stroke="#58595B" stroke-width="4.0358" stroke-linecap="round" stroke-miterlimit="10" points="
			22.438,57.966 22.438,63.094 57.96,63.094 57.96,57.966 		"/>
		
			<line fill="none" stroke="#58595B" stroke-width="4.0358" stroke-linecap="round" stroke-miterlimit="10" x1="33.101" y1="70.201" x2="47.291" y2="70.201"/>
		<path fill="none" stroke="#58595B" stroke-width="4.0358" stroke-linecap="round" stroke-miterlimit="10" d="M36.451,46.708
			c0,2.945-2.386,5.334-5.33,5.334c-2.942,0-5.328-2.389-5.328-5.334c0-2.938,2.386-5.326,5.328-5.326
			C34.065,41.382,36.451,43.77,36.451,46.708z"/>
		<path fill="none" stroke="#58595B" stroke-width="4.0358" stroke-linecap="round" stroke-miterlimit="10" d="M54.395,46.708
			c0,2.945-2.385,5.334-5.327,5.334c-2.946,0-5.331-2.389-5.331-5.334c0-2.938,2.385-5.326,5.331-5.326
			C52.01,41.382,54.395,43.77,54.395,46.708z"/>
	</g>
	<path fill="none" stroke="#58595B" stroke-width="4.0358" stroke-miterlimit="10" d="M52.781,32.696
		c-2.085-4.774-6.844-8.116-12.389-8.116c-5.543,0-10.303,3.341-12.389,8.116"/>
	
		<line fill="none" stroke="#58595B" stroke-width="4.0358" stroke-miterlimit="10" x1="40.392" y1="24.58" x2="40.392" y2="10.799"/>
	
		<circle fill="none" stroke="#58595B" stroke-width="4.0358" stroke-linecap="round" stroke-miterlimit="10" cx="40.393" cy="7.628" r="5.329"/>
	<path fill="none" stroke="#58595B" stroke-width="4.0358" stroke-linecap="round" stroke-miterlimit="10" d="M16.99,76.232
		c0-6.941-2.467-13.307-6.573-18.267"/>
	<path fill="none" stroke="#58595B" stroke-width="4.0358" stroke-linecap="round" stroke-miterlimit="10" d="M64.801,76.232
		c0-6.941,2.473-13.307,6.578-18.267"/>
	
		<line fill="none" stroke="#58595B" stroke-width="4.0358" stroke-linecap="round" stroke-miterlimit="10" x1="2.5" y1="47.895" x2="2.5" y2="65.07"/>
	
		<line fill="none" stroke="#58595B" stroke-width="4.0358" stroke-linecap="round" stroke-miterlimit="10" x1="77.5" y1="47.895" x2="77.5" y2="65.07"/>
</g>
<g>
</g>
<g>
</g>
<g>
</g>
<g>
</g>
<g>
</g>
<g>
</g>
<g>
</g>
<g>
</g>
<g>
</g>
<g>
</g>
<g>
</g>
<g>
</g>
<g>
</g>
<g>
</g>
<g>
</g>
</svg>
