<?xml version="1.0" encoding="utf-8"?>
<!-- Generator: Adobe Illustrator 16.0.4, SVG Export Plug-In . SVG Version: 6.00 Build 0)  -->
<!DOCTYPE svg PUBLIC "-//W3C//DTD SVG 1.1//EN" "http://www.w3.org/Graphics/SVG/1.1/DTD/svg11.dtd">
<svg version="1.1" id="Layer_1" xmlns="http://www.w3.org/2000/svg" xmlns:xlink="http://www.w3.org/1999/xlink" x="0px" y="0px"
	 width="589px" height="153px" viewBox="0 0 589 153" enable-background="new 0 0 589 153" xml:space="preserve">
<g>
	<g>
		<path fill="#6D6E71" d="M181.901,104.886v23.033h-7.784V71.607h20.492c10.404,0,17.394,7.228,17.394,16.68
			c0,9.529-6.989,16.599-17.394,16.599H181.901z M193.18,97.896c6.75,0,10.881-3.733,10.881-9.53c0-5.957-4.131-9.77-10.881-9.77
			h-11.278v19.3H193.18z"/>
		<path fill="#6D6E71" d="M222.004,69.859c3.018,0,5.4,2.384,5.4,5.401c0,2.938-2.383,5.321-5.4,5.321
			c-2.938,0-5.321-2.383-5.321-5.321C216.683,72.243,219.065,69.859,222.004,69.859z M218.35,127.919V89.716h7.388v38.203H218.35z"
			/>
		<path fill="#6D6E71" d="M240.507,108.778c0,8.735,5.481,13.422,11.675,13.422c7.148,0,9.77-4.845,10.645-7.863l6.591,2.859
			c-1.827,5.48-7.308,11.914-17.235,11.914c-11.119,0-19.299-8.736-19.299-20.332c0-11.914,8.34-20.254,19.221-20.254
			c10.165,0,15.407,6.354,16.996,12.152l-6.752,2.858c-0.952-3.732-3.732-8.101-10.244-8.101
			C246.066,95.435,240.507,99.883,240.507,108.778z"/>
		<path fill="#6D6E71" d="M286.172,106.077l10.325-1.509c2.303-0.317,2.938-1.509,2.938-2.859c0-3.733-2.463-6.83-8.26-6.83
			c-5.242,0-8.182,3.256-8.658,7.703l-7.147-1.667c0.794-7.308,7.386-12.391,15.646-12.391c11.437,0,15.885,6.513,15.885,13.979
			v19.141c0,3.336,0.317,5.322,0.477,6.275h-7.308c-0.158-0.953-0.396-2.383-0.396-5.163c-1.668,2.7-5.48,6.354-12.311,6.354
			c-7.783,0-12.787-5.401-12.787-11.438C274.576,110.843,279.58,107.03,286.172,106.077z M299.436,111.558v-1.748l-11.676,1.748
			c-3.176,0.477-5.56,2.303-5.56,5.718c0,2.859,2.384,5.561,6.195,5.561C294.512,122.836,299.436,119.896,299.436,111.558z"/>
		<path fill="#6D6E71" d="M320.875,115.608c0.477,3.971,3.495,7.147,8.896,7.147c4.209,0,6.512-2.382,6.512-5.083
			c0-2.383-1.746-4.209-4.924-4.925l-6.514-1.43c-5.955-1.27-9.53-5.321-9.53-10.722c0-6.513,6.116-12.072,13.581-12.072
			c10.484,0,13.74,6.83,14.535,10.245l-6.592,2.463c-0.318-1.985-1.906-6.354-7.943-6.354c-3.812,0-6.354,2.462-6.354,5.083
			c0,2.304,1.43,3.972,4.369,4.606l6.195,1.35c6.909,1.51,10.562,5.719,10.562,11.357c0,5.401-4.527,11.835-13.979,11.835
			c-10.484,0-14.932-6.752-15.566-11.119L320.875,115.608z"/>
		<path fill="#6D6E71" d="M355.977,115.608c0.477,3.971,3.495,7.147,8.895,7.147c4.21,0,6.514-2.382,6.514-5.083
			c0-2.383-1.748-4.209-4.924-4.925l-6.514-1.43c-5.957-1.27-9.53-5.321-9.53-10.722c0-6.513,6.115-12.072,13.581-12.072
			c10.484,0,13.74,6.83,14.534,10.245l-6.592,2.463c-0.317-1.985-1.905-6.354-7.942-6.354c-3.812,0-6.354,2.462-6.354,5.083
			c0,2.304,1.43,3.972,4.367,4.606l6.195,1.35c6.91,1.51,10.564,5.719,10.564,11.357c0,5.401-4.527,11.835-13.979,11.835
			c-10.484,0-14.933-6.752-15.568-11.119L355.977,115.608z"/>
		<path fill="#6D6E71" d="M423.404,108.778c0,11.675-8.102,20.332-19.539,20.332s-19.537-8.657-19.537-20.332
			c0-11.597,8.1-20.254,19.537-20.254S423.404,97.182,423.404,108.778z M415.779,108.778c0-8.816-5.56-13.582-11.914-13.582
			c-6.354,0-11.912,4.766-11.912,13.582c0,8.895,5.559,13.66,11.912,13.66C410.22,122.438,415.779,117.673,415.779,108.778z"/>
		<path fill="#6D6E71" d="M441.34,127.919V71.607h7.785v49.004h23.457v7.308H441.34z"/>
		<path fill="#6D6E71" d="M489.308,106.077l10.325-1.509c2.303-0.317,2.939-1.509,2.939-2.859c0-3.733-2.463-6.83-8.262-6.83
			c-5.241,0-8.18,3.256-8.656,7.703l-7.148-1.667c0.795-7.308,7.387-12.391,15.646-12.391c11.438,0,15.885,6.513,15.885,13.979
			v19.141c0,3.336,0.318,5.322,0.477,6.275h-7.307c-0.16-0.953-0.398-2.383-0.398-5.163c-1.666,2.7-5.479,6.354-12.31,6.354
			c-7.783,0-12.788-5.401-12.788-11.438C477.711,110.843,482.716,107.03,489.308,106.077z M502.572,111.558v-1.748l-11.677,1.748
			c-3.176,0.477-5.56,2.303-5.56,5.718c0,2.859,2.384,5.561,6.195,5.561C497.646,122.836,502.572,119.896,502.572,111.558z"/>
		<path fill="#6D6E71" d="M517.686,127.919V70.416h7.385v24.701c1.828-3.415,6.275-6.514,12.629-6.514
			c11.596,0,17.553,8.896,17.553,20.016c0,11.356-6.434,20.332-17.791,20.332c-5.639,0-10.006-2.463-12.391-6.593v5.561H517.686z
			 M536.35,95.196c-6.592,0-11.357,5.162-11.357,13.423c0,8.26,4.766,13.66,11.357,13.66c6.83,0,11.277-5.4,11.277-13.66
			C547.627,100.358,543.259,95.196,536.35,95.196z"/>
		<path fill="#6D6E71" d="M566.109,115.608c0.478,3.971,3.495,7.147,8.896,7.147c4.209,0,6.512-2.382,6.512-5.083
			c0-2.383-1.746-4.209-4.924-4.925l-6.512-1.43c-5.957-1.27-9.532-5.321-9.532-10.722c0-6.513,6.116-12.072,13.581-12.072
			c10.484,0,13.74,6.83,14.535,10.245l-6.592,2.463c-0.318-1.985-1.906-6.354-7.943-6.354c-3.812,0-6.354,2.462-6.354,5.083
			c0,2.304,1.43,3.972,4.369,4.606l6.195,1.35c6.909,1.51,10.562,5.719,10.562,11.357c0,5.401-4.527,11.835-13.979,11.835
			c-10.484,0-14.932-6.752-15.566-11.119L566.109,115.608z"/>
	</g>
	<g>
		<g>
			<path fill="none" stroke="#E63D2F" stroke-width="7.7688" stroke-miterlimit="10" d="M15.383,148.88V85.046
				c0-12.589,10.205-22.794,22.795-22.794h69.692c12.589,0,22.794,10.205,22.794,22.794v63.834H15.383z"/>
			<polyline fill="none" stroke="#E63D2F" stroke-width="7" stroke-linecap="round" stroke-miterlimit="10" points="40.459,110.888 
				40.459,120.763 104.838,120.763 104.838,110.888 			"/>
			
				<line fill="none" stroke="#E63D2F" stroke-width="7" stroke-linecap="round" stroke-miterlimit="10" x1="58.99" y1="134.443" x2="86.307" y2="134.443"/>
			
				<circle fill="none" stroke="#E63D2F" stroke-width="7.7688" stroke-linecap="round" stroke-miterlimit="10" cx="55.178" cy="89.228" r="10.258"/>
			
				<circle fill="none" stroke="#E63D2F" stroke-width="7.7688" stroke-linecap="round" stroke-miterlimit="10" cx="89.721" cy="89.228" r="10.258"/>
		</g>
		<path fill="none" stroke="#E63D2F" stroke-width="7.7688" stroke-miterlimit="10" d="M96.875,62.252
			c-4.016-9.193-13.178-15.625-23.852-15.625c-10.672,0-19.835,6.432-23.851,15.625"/>
		<line fill="none" stroke="#E63D2F" stroke-width="6" stroke-miterlimit="10" x1="73.023" y1="46.627" x2="73.023" y2="24.252"/>
		<circle fill="none" stroke="#E63D2F" stroke-width="7" stroke-miterlimit="10" cx="73.024" cy="13.995" r="10.257"/>
		<path fill="none" stroke="#E63D2F" stroke-width="6" stroke-linecap="round" stroke-miterlimit="10" d="M29.977,146.06
			c0-13.365-4.75-25.619-12.653-35.172"/>
		<path fill="none" stroke="#E63D2F" stroke-width="6" stroke-linecap="round" stroke-miterlimit="10" d="M118.01,146.06
			c0-13.365,4.752-25.619,12.654-35.172"/>
		<path fill="none" stroke="#E63D2F" stroke-width="7.7688" stroke-linecap="round" stroke-miterlimit="10" d="M2.086,124.564"/>
		<path fill="none" stroke="#E63D2F" stroke-width="7.7688" stroke-linecap="round" stroke-miterlimit="10" d="M2.086,91.509"/>
		
			<line fill="none" stroke="#E63D2F" stroke-width="7" stroke-linecap="round" stroke-miterlimit="10" x1="142.451" y1="91.509" x2="142.451" y2="124.564"/>
		
			<line fill="none" stroke="#E63D2F" stroke-width="7" stroke-linecap="round" stroke-miterlimit="10" x1="3.596" y1="91.509" x2="3.596" y2="124.564"/>
	</g>
</g>
<g>
</g>
<g>
</g>
<g>
</g>
<g>
</g>
<g>
</g>
<g>
</g>
<g>
</g>
<g>
</g>
<g>
</g>
<g>
</g>
<g>
</g>
<g>
</g>
<g>
</g>
<g>
</g>
<g>
</g>
</svg>
